<?xml version="1.0" standalone="no"?>
<!DOCTYPE svg PUBLIC "-//W3C//DTD SVG 20010904//EN"
 "http://www.w3.org/TR/2001/REC-SVG-20010904/DTD/svg10.dtd">
<svg version="1.0" xmlns="http://www.w3.org/2000/svg"
 width="665.000000pt" height="665.000000pt" viewBox="0 0 665.000000 665.000000"
 preserveAspectRatio="xMidYMid meet">
<metadata>
Created by potrace 1.14, written by Peter Selinger 2001-2017
</metadata>
<g transform="translate(0.000000,665.000000) scale(0.100000,-0.100000)"
fill="#000000" stroke="none">
<path d="M3820 6321 c-17 -10 -158 -23 -315 -27 -279 -9 -443 -26 -680 -69
-132 -25 -256 -50 -275 -55 -19 -6 -80 -24 -135 -40 -55 -15 -133 -42 -174
-59 -80 -34 -85 -35 -77 -22 7 11 -42 21 -100 21 -24 0 -44 5 -44 10 0 6 6 10
13 10 6 0 4 5 -6 11 -19 11 -41 3 -217 -79 -65 -31 -203 -114 -317 -192 -355
-242 -700 -608 -916 -970 -231 -390 -373 -879 -408 -1410 -15 -243 0 -450 57
-735 36 -180 113 -417 199 -610 77 -172 295 -523 431 -695 87 -109 345 -367
454 -454 215 -170 456 -311 785 -459 200 -90 539 -181 820 -219 207 -28 556
-30 743 -5 168 23 477 104 647 168 312 118 667 322 913 525 118 96 332 307
384 377 18 24 71 91 117 148 159 196 318 450 392 629 83 197 168 455 197 595
58 278 66 349 66 595 1 263 -9 344 -74 642 -62 283 -97 382 -250 703 -96 203
-230 437 -204 358 16 -48 27 -73 34 -73 4 0 13 -12 20 -27 16 -32 14 -29 24
-68 4 -16 11 -38 17 -47 6 -12 6 -18 0 -18 -6 0 -45 43 -87 96 -43 53 -114
135 -157 181 -44 46 -72 81 -63 77 9 -3 16 -10 16 -15 0 -5 6 -8 13 -7 6 2 11
-3 9 -9 -3 -18 13 -16 33 3 15 15 18 15 39 -5 24 -23 42 -28 30 -9 -4 6 -3 8
4 5 5 -4 8 -16 5 -27 -3 -11 0 -20 6 -20 6 0 11 5 11 11 0 8 6 7 17 -2 15 -13
15 -12 0 16 -36 69 -140 195 -337 411 -236 258 -759 584 -1147 715 -78 26
-207 62 -285 79 -79 18 -147 36 -152 41 -12 11 -56 11 -76 0z m105 -175 c66
-14 176 -35 245 -46 155 -25 221 -46 380 -120 69 -32 158 -73 198 -91 39 -17
72 -36 72 -41 0 -5 -9 -4 -20 2 -16 8 -22 7 -31 -9 -11 -16 -21 -18 -73 -14
-44 3 -65 9 -74 22 -11 16 -23 18 -79 13 -48 -4 -64 -2 -59 7 4 6 15 11 24 12
12 0 13 2 3 6 -22 9 -48 38 -43 51 2 7 -7 16 -20 21 -18 6 -26 4 -36 -11 -9
-12 -20 -17 -33 -13 -11 4 -26 1 -34 -5 -12 -10 -15 -9 -15 5 0 20 -24 15 -28
-6 -1 -8 11 -20 28 -28 17 -7 30 -15 28 -17 -2 -2 -80 12 -173 31 -262 53
-428 68 -710 62 -261 -5 -321 -13 -550 -72 -383 -99 -765 -284 -1017 -492 -46
-37 -114 -93 -153 -124 -86 -69 -201 -184 -258 -258 -23 -31 -74 -97 -113
-147 -82 -105 -146 -208 -221 -349 -29 -55 -52 -96 -53 -92 0 14 98 201 141
267 21 33 39 63 39 66 0 3 4 10 10 17 5 7 41 55 80 107 38 52 74 101 80 108 6
6 8 12 5 12 -5 0 4 12 33 45 14 16 16 29 3 20 -6 -3 -14 3 -20 12 -6 11 -11
13 -11 5 0 -7 -4 -11 -10 -7 -13 8 4 50 35 83 20 21 22 28 10 30 -8 2 -15 10
-15 18 0 8 -5 23 -12 34 -7 10 -9 23 -5 27 5 4 12 1 17 -7 7 -11 10 -6 10 18
0 17 -4 32 -10 32 -5 0 -7 13 -5 29 2 21 0 28 -9 25 -8 -3 -11 -16 -9 -32 2
-21 1 -23 -5 -8 -7 16 -10 16 -23 5 -48 -46 -44 -33 6 20 198 208 508 437 742
547 165 78 377 148 583 194 270 60 377 69 730 66 287 -3 312 -5 425 -30z
m-1790 -116 c-27 -12 -43 -12 -25 0 8 5 22 9 30 9 10 0 8 -3 -5 -9z m2395
-184 c0 -2 -9 -6 -20 -9 -11 -3 -18 -1 -14 4 5 9 34 13 34 5z m-753 -27 c184
-11 486 -62 555 -94 l33 -15 -30 6 c-72 14 -153 26 -185 28 -31 1 -35 -2 -38
-26 -2 -16 -8 -28 -15 -28 -8 0 -8 -3 1 -12 7 -7 12 -17 12 -22 0 -6 -8 1 -18
16 -17 26 -18 26 -30 8 -7 -11 -12 -25 -12 -32 1 -7 8 -2 16 12 10 16 13 18 9
6 -3 -11 0 -23 6 -27 6 -4 8 -12 4 -18 -5 -9 -10 -9 -21 0 -11 9 -18 9 -26 1
-7 -7 -8 -15 -4 -19 4 -4 11 -1 16 7 6 8 10 10 10 5 0 -17 -22 -35 -43 -35
-10 0 -15 -5 -12 -10 3 -6 20 -8 36 -5 17 3 35 2 42 -2 7 -5 32 -13 57 -20
l45 -12 -40 4 c-345 39 -701 28 -970 -30 -129 -28 -349 -97 -461 -146 -280
-120 -600 -350 -787 -564 -202 -233 -395 -616 -452 -900 -24 -116 -36 -339
-25 -459 5 -55 9 -108 9 -116 -2 -33 -18 69 -18 117 -1 28 -6 64 -12 80 -13
31 -19 148 -7 130 5 -8 8 -6 8 5 0 9 -7 23 -15 32 -8 8 -15 24 -15 35 0 32
-20 25 -21 -6 l-1 -28 -7 25 -7 25 -8 -25 -8 -25 -8 25 c-6 20 -8 21 -9 6 -1
-11 -4 -17 -7 -13 -3 3 -3 15 1 26 5 16 15 21 42 21 l36 0 -34 33 c-22 22 -37
30 -41 23 -4 -6 -8 8 -8 30 0 29 -5 44 -16 48 -8 3 -12 10 -9 16 3 5 2 10 -3
10 -6 0 -13 -7 -16 -16 -9 -23 -34 4 -28 32 2 13 -2 23 -12 27 -9 4 -16 2 -16
-3 0 -6 -12 -10 -27 -10 -26 1 -27 2 -10 14 17 13 17 15 -2 28 -20 14 -20 15
-1 99 36 164 153 440 271 640 79 134 190 272 328 408 139 136 237 211 421 321
409 244 748 349 1190 369 91 4 175 9 187 9 12 1 102 -3 200 -9z m786 -6 c-7
-2 -19 -2 -25 0 -7 3 -2 5 12 5 14 0 19 -2 13 -5z m67 -15 c0 -5 -9 -8 -19 -8
-11 0 -22 3 -24 8 -3 4 6 7 19 7 13 0 24 -3 24 -7z m550 -158 c266 -182 370
-266 370 -298 0 -15 -2 -15 -10 -2 -5 8 -10 11 -10 6 0 -5 -9 -1 -20 9 -11 10
-17 23 -13 29 3 6 -4 1 -15 -11 -20 -20 -24 -21 -49 -8 -20 10 -30 11 -40 3
-17 -14 1 -38 28 -38 11 0 16 -5 14 -12 -3 -7 8 -22 25 -33 16 -11 30 -24 30
-28 0 -5 -15 4 -32 18 -18 15 -84 65 -146 111 l-112 84 16 26 c17 25 14 41 -6
29 -6 -4 -15 -16 -18 -26 -7 -17 -12 -15 -67 21 -33 22 -55 40 -50 40 6 -1 19
-7 29 -15 41 -31 61 31 30 94 -16 32 -46 55 -58 44 -3 -3 -6 1 -6 9 0 9 -13
21 -30 28 -16 7 -30 16 -30 21 0 5 -7 5 -17 2 -11 -4 -14 -3 -9 5 4 7 10 12
14 12 4 0 86 -54 182 -120z m-210 70 c0 -5 -9 -10 -20 -10 -11 0 -20 5 -20 10
0 6 9 10 20 10 11 0 20 -4 20 -10z m-520 -27 c30 -11 31 -12 6 -8 -16 4 -43
13 -60 20 -23 11 -25 13 -6 8 14 -3 41 -12 60 -20z m171 -64 c156 -71 377
-191 415 -226 11 -10 14 -14 7 -10 -6 5 -17 6 -23 2 -5 -3 -10 -1 -10 4 0 6
-9 11 -19 11 -11 0 -23 5 -27 12 -5 7 -3 8 6 3 9 -5 11 -4 6 3 -4 7 -16 12
-27 12 -10 0 -28 9 -39 20 -11 11 -22 20 -25 20 -3 0 -23 11 -44 24 -21 13
-55 27 -77 30 -21 4 -40 11 -42 16 -2 6 -10 10 -17 10 -8 0 -21 10 -29 21 -9
13 -28 22 -47 24 -19 2 -35 8 -37 14 -2 6 -9 8 -14 5 -7 -4 -8 -2 -4 4 4 7 1
12 -7 12 -14 0 -77 29 -77 35 0 7 60 -14 131 -46z m-394 -95 c-3 -3 -12 -4
-19 -1 -8 3 -5 6 6 6 11 1 17 -2 13 -5z m40 -10 c-3 -3 -12 -4 -19 -1 -8 3 -5
6 6 6 11 1 17 -2 13 -5z m991 -286 c67 -55 122 -101 122 -105 0 -3 -7 0 -15 7
-8 7 -15 9 -15 4 0 -5 -5 -1 -11 9 -5 9 -20 17 -32 18 -12 0 -16 3 -9 6 18 7
-4 33 -29 33 -11 0 -19 5 -19 11 0 13 -27 37 -100 88 -31 22 -62 47 -70 57
-22 27 35 -14 178 -128z m332 -60 c0 -13 -25 2 -38 23 -13 21 -13 21 12 3 14
-11 26 -22 26 -26z m-1506 -7 c4 -5 -3 -7 -14 -4 -23 6 -26 13 -6 13 8 0 17
-4 20 -9z m1531 -1 c3 -5 1 -10 -4 -10 -6 0 -11 5 -11 10 0 6 2 10 4 10 3 0 8
-4 11 -10z m-447 -75 c29 -21 52 -43 52 -47 0 -7 -98 67 -125 95 -17 17 17 -5
73 -48z m243 18 c13 -16 12 -17 -3 -4 -10 7 -18 15 -18 17 0 8 8 3 21 -13z
m141 -130 c326 -329 586 -845 670 -1323 21 -121 23 -163 22 -405 l-2 -270 -39
-185 c-53 -243 -78 -323 -161 -515 -126 -292 -219 -460 -342 -617 -278 -357
-569 -629 -861 -804 -49 -29 -100 -61 -114 -70 -14 -9 -25 -14 -25 -11 0 2 18
16 40 31 24 16 38 31 34 38 -4 7 -3 8 4 4 21 -13 171 82 155 98 -3 3 -1 6 5 6
6 0 9 6 6 14 -4 10 3 13 26 10 27 -3 29 -2 17 11 -23 22 -2 95 27 95 16 0 18
2 7 9 -11 7 -9 10 9 16 18 6 20 9 9 16 -12 7 -11 9 1 10 10 0 8 3 -5 9 -18 8
-18 9 -2 9 10 1 15 6 12 11 -3 6 5 10 18 10 20 0 24 4 20 20 -5 18 5 25 30 21
5 -1 5 3 2 9 -4 6 -14 9 -22 5 -13 -4 -14 -3 -4 9 7 8 19 12 27 9 15 -6 46 26
38 39 -3 4 1 5 9 2 9 -3 23 7 37 25 12 17 18 31 14 31 -3 0 -1 7 6 15 7 8 17
12 23 8 5 -3 7 -2 4 4 -4 6 24 41 61 79 103 105 216 244 319 394 43 64 189
345 212 411 10 30 31 80 45 111 37 84 104 328 121 443 9 55 22 144 31 198 25
151 15 439 -20 617 -31 152 -95 391 -127 471 -51 131 -177 370 -258 492 -70
104 -122 165 -243 288 -84 86 -147 154 -141 152 7 -3 13 -9 13 -13 0 -12 58
-30 75 -24 8 4 15 1 15 -5 0 -11 -15 -15 -35 -11 -5 1 -7 -2 -3 -6 4 -4 21 -8
38 -9 24 -2 30 1 30 16 0 28 25 23 40 -8 7 -16 13 -31 12 -35 -1 -5 3 -8 8 -8
6 0 10 5 10 10 0 6 5 10 11 10 5 0 7 -5 4 -10 -3 -6 0 -17 9 -25 18 -19 23
-19 23 0 0 8 -4 15 -9 15 -4 0 -8 5 -8 10 0 6 7 10 15 10 8 0 15 -9 15 -19 0
-22 17 -37 28 -26 4 4 1 10 -5 12 -15 5 -18 33 -4 33 5 0 12 -6 14 -12 3 -7 6
-4 6 8 1 19 -3 20 -55 14 -30 -3 -57 -3 -60 2 -3 4 13 8 35 8 26 0 41 5 41 13
0 8 4 7 10 -3 7 -11 10 -12 10 -2 0 7 -7 20 -15 29 -13 13 -18 13 -33 1 -16
-12 -16 -11 -2 6 13 17 12 21 -13 42 -16 13 -24 24 -20 24 5 0 52 -44 105 -97z
m-1129 46 c212 -108 505 -355 653 -552 57 -77 190 -289 227 -362 72 -145 139
-347 187 -565 75 -345 26 -797 -127 -1170 -123 -300 -275 -522 -529 -772 -134
-131 -201 -186 -371 -299 -221 -148 -347 -212 -393 -198 -23 6 -22 7 10 9 25
2 28 4 13 7 -18 3 -23 11 -23 33 0 16 -4 31 -9 34 -10 7 -3 93 10 118 7 12 4
20 -7 26 -20 11 -14 47 8 46 10 -1 16 5 15 17 -1 11 -3 19 -4 19 -2 0 -35 -16
-73 -35 -38 -19 -73 -35 -77 -35 -5 1 10 10 32 22 213 110 435 271 611 440
160 155 263 297 368 506 82 164 163 423 196 627 17 103 14 421 -5 530 -47 270
-128 468 -287 706 -93 141 -255 310 -398 418 -80 60 -100 84 -79 97 5 3 9 1 9
-3 0 -5 6 -17 13 -27 13 -18 15 -17 39 7 14 14 29 24 32 21 3 -2 4 -1 1 3 -10
13 -35 11 -35 -2 0 -14 -25 -27 -34 -18 -9 10 -7 25 3 19 5 -3 11 1 15 9 7 18
-5 20 -22 3 -7 -7 -12 -8 -12 -2 0 6 9 19 20 29 25 22 26 37 3 28 -15 -6 -16
-5 -3 9 15 16 34 18 46 5 15 -15 26 -6 13 10 -8 9 -13 18 -11 20 11 15 -2 22
-14 7 -12 -15 -15 -16 -10 -2 3 9 1 19 -5 22 -5 2 -4 3 3 2 7 -2 22 4 32 13
11 9 16 10 12 4 -4 -8 -2 -13 6 -13 9 0 9 -3 -2 -10 -13 -8 -9 -15 5 -7 2 1
12 -8 20 -20 20 -28 35 -29 35 -3 0 11 -4 20 -10 20 -5 0 -7 -7 -4 -15 11 -28
-4 -15 -20 17 -20 39 -20 82 -1 98 17 14 20 30 5 30 -6 0 -9 -5 -7 -12 1 -6
-7 -14 -18 -16 -15 -3 -17 -1 -8 9 8 11 5 19 -10 34 -11 11 -16 14 -12 6 5 -9
4 -12 -3 -7 -7 4 -12 13 -12 20 0 13 -33 45 -66 64 -41 24 0 10 59 -19z m27
-84 c0 -12 -19 -12 -23 0 -4 9 -1 12 9 8 7 -3 14 -7 14 -8z m3 -75 c-16 -18
-43 -17 -43 2 0 6 8 4 17 -3 14 -12 16 -12 11 1 -4 11 0 16 12 17 17 2 17 0 3
-17z m-358 -50 c3 -6 -1 -7 -9 -4 -18 7 -21 14 -7 14 6 0 13 -4 16 -10z m304
-12 c0 -13 -3 -17 -6 -10 -2 6 -10 9 -16 5 -7 -4 -6 1 2 10 18 22 21 21 20 -5z
m-54 -9 c-4 -6 3 -21 15 -34 17 -18 19 -25 8 -31 -7 -4 -10 -3 -5 1 4 5 -2 19
-14 31 -18 19 -20 44 -3 44 3 0 2 -5 -1 -11z m-170 -19 c3 -6 -1 -7 -9 -4 -18
7 -21 14 -7 14 6 0 13 -4 16 -10z m861 -22 l29 -33 -32 29 c-31 28 -38 36 -30
36 2 0 16 -15 33 -32z m-820 13 c-7 -11 22 -23 36 -14 7 4 8 1 3 -7 -6 -10 -4
-12 9 -7 10 4 15 3 11 -3 -6 -9 8 -14 28 -11 5 1 5 -4 1 -10 -4 -7 -2 -10 7
-7 8 3 13 10 12 16 -2 7 4 9 13 5 15 -5 15 -7 0 -15 -15 -8 -14 -11 6 -28 30
-25 14 -26 -20 -2 -15 11 -51 32 -80 47 -36 20 -49 31 -40 37 17 10 20 10 14
-1z m1764 -59 c0 -15 -2 -15 -10 -2 -13 20 -13 33 0 25 6 -3 10 -14 10 -23z
m-705 -207 c18 -24 37 -39 46 -37 12 2 16 -4 15 -25 0 -15 4 -28 11 -28 6 0
15 -4 20 -9 5 -5 3 -6 -4 -2 -7 4 -13 4 -13 1 0 -6 6 -13 45 -58 14 -15 25
-32 25 -36 0 -4 9 -18 20 -31 19 -22 21 -22 33 -5 10 12 20 15 35 11 18 -6 20
-11 12 -27 -7 -13 -7 -19 0 -19 5 0 10 5 10 10 0 6 5 10 11 10 6 0 8 -7 5 -17
-5 -13 -1 -12 17 5 21 20 25 21 30 8 4 -9 4 -23 1 -31 -4 -8 -2 -15 4 -15 6 0
13 6 15 13 3 7 6 5 6 -5 1 -23 21 -24 21 -1 0 21 11 11 14 -14 2 -10 10 -17
19 -17 19 2 62 -96 116 -266 88 -277 115 -434 115 -680 0 -250 -29 -431 -120
-749 -33 -113 -129 -325 -217 -479 -182 -315 -551 -705 -849 -896 -26 -17 -27
-17 -25 3 1 12 8 21 16 21 12 0 12 3 3 12 -15 15 -16 31 -1 22 8 -5 10 3 7 27
-3 21 0 38 9 47 7 7 10 19 6 25 -3 7 -3 9 2 5 14 -13 45 12 45 36 0 13 7 26
15 30 17 6 20 26 4 26 -5 0 -7 -5 -4 -10 3 -6 -4 -10 -17 -10 l-23 0 25 23
c14 13 81 75 148 138 374 345 619 774 715 1249 45 220 61 420 47 585 -43 520
-217 937 -539 1290 -61 66 -60 66 15 -10 44 -44 93 -98 109 -120z m-1773 130
c236 -36 499 -155 678 -309 177 -151 320 -384 381 -621 27 -102 32 -144 36
-280 6 -183 -3 -263 -49 -410 -39 -130 -103 -256 -190 -378 -161 -226 -350
-369 -624 -471 -150 -55 -253 -71 -464 -70 -190 1 -286 16 -441 70 -266 92
-436 213 -600 424 -122 157 -201 320 -241 494 -25 108 -30 362 -9 486 62 373
255 671 557 862 181 114 332 171 539 203 112 18 307 18 427 0z m2134 -347 c8
-16 10 -28 4 -28 -5 0 -10 8 -11 18 0 10 -3 12 -6 5 -2 -7 -9 -13 -15 -13 -6
0 -5 6 2 15 10 12 10 19 2 27 -7 7 -12 17 -12 23 0 11 13 -6 36 -47z m-82 34
c2 -4 -4 -13 -14 -20 -16 -10 -18 -8 -17 8 1 20 21 27 31 12z m6 -42 c0 -5 -4
-10 -10 -10 -5 0 -10 5 -10 10 0 6 5 10 10 10 6 0 10 -4 10 -10z m108 -55 c-3
-3 -9 2 -12 12 -6 14 -5 15 5 6 7 -7 10 -15 7 -18z m-4524 -332 c-3 -32 -7
-60 -9 -63 -2 -3 -7 -99 -10 -214 -4 -115 -11 -221 -16 -235 -17 -51 -2 418
16 497 9 39 18 72 20 72 2 0 2 -26 -1 -57z m71 27 c3 -5 1 -10 -4 -10 -6 0
-11 5 -11 10 0 6 2 10 4 10 3 0 8 -4 11 -10z m92 -62 c-3 -8 -6 -5 -6 6 -1 11
2 17 5 13 3 -3 4 -12 1 -19z m-107 5 c0 -5 -4 -14 -9 -21 -7 -11 -9 -11 -14 1
-3 8 -3 18 0 21 9 8 23 7 23 -1z m160 -67 c0 -2 -7 -6 -15 -10 -8 -3 -15 -1
-15 4 0 6 7 10 15 10 8 0 15 -2 15 -4z m-243 -508 c-3 -7 -5 -2 -5 12 0 14 2
19 5 13 2 -7 2 -19 0 -25z m396 -223 l6 -30 -14 30 c-16 34 -21 72 -6 45 5 -8
11 -28 14 -45z m3243 -427 c-51 -87 -57 -99 -67 -146 -5 -26 -14 -65 -20 -87
-5 -22 -12 -56 -15 -75 -7 -42 -21 -74 -49 -115 -11 -16 -21 -45 -20 -62 0
-18 -3 -33 -7 -33 -5 0 -8 -15 -8 -32 0 -18 -9 -48 -21 -67 -11 -18 -18 -36
-15 -39 4 -3 6 0 6 6 0 7 6 12 13 12 19 -1 -104 -111 -190 -171 -237 -163
-520 -273 -833 -321 -110 -17 -489 -17 -590 0 -117 20 -295 61 -384 89 -85 26
-349 143 -342 151 3 2 40 -13 83 -33 98 -47 145 -63 161 -58 6 3 12 0 12 -7 0
-6 5 -8 12 -4 7 4 8 3 4 -4 -5 -8 1 -12 16 -12 13 0 28 -4 34 -8 17 -15 91
-32 110 -25 12 4 15 3 10 -5 -4 -7 -2 -12 3 -12 16 0 13 20 -4 26 -20 8 -19
36 3 60 9 10 18 27 19 37 1 17 0 17 -18 -2 -10 -11 -19 -26 -19 -33 -1 -8 -6
-5 -15 6 -20 26 -19 37 2 29 11 -4 14 -3 9 5 -4 8 0 12 11 12 14 0 12 3 -7 14
-16 8 -31 10 -42 4 -23 -11 -24 14 -2 36 14 15 14 16 -3 17 -15 0 -15 2 4 9
l21 9 -20 40 c-11 23 -24 41 -29 41 -5 0 -9 5 -9 12 0 9 3 9 12 0 14 -14 32
-16 24 -3 -4 5 0 12 6 14 7 3 3 6 -9 6 -12 1 -23 4 -25 9 -1 4 -38 25 -80 47
-42 22 -76 41 -74 42 1 1 52 -20 112 -47 122 -54 239 -89 389 -117 135 -24
473 -25 624 0 350 57 673 221 948 481 88 84 200 214 258 304 15 23 29 42 32
42 2 0 -8 -19 -21 -42z m-3191 -368 c10 -11 16 -20 13 -20 -3 0 -13 9 -23 20
-10 11 -16 20 -13 20 3 0 13 -9 23 -20z m256 -251 c37 -30 94 -74 128 -98 72
-51 82 -67 14 -20 -92 62 -209 158 -263 216 l-55 58 55 -51 c30 -28 85 -75
121 -105z m404 113 c-3 -3 -16 5 -28 17 l-22 23 28 -17 c15 -10 25 -20 22 -23z
m166 -99 c13 -16 12 -17 -3 -4 -10 7 -18 15 -18 17 0 8 8 3 21 -13z m-291
-220 c0 -7 -61 31 -73 46 -7 8 7 2 31 -14 23 -15 42 -30 42 -32z m496 0 c-4
-4 -11 -1 -16 7 -16 25 -11 35 7 17 9 -9 13 -20 9 -24z m-426 -39 c0 -2 -9 0
-20 6 -11 6 -20 13 -20 16 0 2 9 0 20 -6 11 -6 20 -13 20 -16z m400 16 c0 -5
-7 -10 -15 -10 -8 0 -15 5 -15 10 0 6 7 10 15 10 8 0 15 -4 15 -10z m55 -160
c3 -5 2 -10 -4 -10 -5 0 -13 5 -16 10 -3 6 -2 10 4 10 5 0 13 -4 16 -10z
m2107 -307 c-6 -3 -10 -9 -6 -14 3 -5 2 -8 -3 -7 -4 1 -19 -3 -33 -10 -19 -10
-17 -6 9 17 19 17 37 28 40 24 3 -3 0 -8 -7 -10z m-862 -2 c-8 -5 -26 -11 -40
-15 -21 -5 -20 -3 5 9 32 15 60 20 35 6z m-110 -41 c-8 -5 -22 -9 -30 -9 -10
0 -8 3 5 9 27 12 43 12 25 0z m1380 0 c0 -5 -5 -10 -11 -10 -5 0 -7 5 -4 10 3
6 8 10 11 10 2 0 4 -4 4 -10z m-480 -4 c0 -3 -15 -14 -32 -26 l-33 -22 30 26
c31 27 35 29 35 22z m-612 -41 c-3 -3 -9 2 -12 12 -6 14 -5 15 5 6 7 -7 10
-15 7 -18z m-8 -41 c0 -3 -7 -1 -15 6 -8 7 -15 17 -15 22 0 5 7 3 15 -6 8 -8
15 -18 15 -22z m1024 24 c-5 -13 -97 -88 -124 -103 -8 -4 3 8 25 26 22 19 53
46 70 61 35 32 36 32 29 16z m-424 -148 c-14 -11 -47 -31 -75 -46 -45 -25 -48
-25 -31 -6 10 12 34 27 52 34 19 7 34 15 34 19 0 6 15 13 40 18 3 0 -6 -8 -20
-19z m-610 6 c0 -2 -7 -7 -16 -10 -8 -3 -12 -2 -9 4 6 10 25 14 25 6z"/>
<path d="M4128 5953 c7 -3 16 -2 19 1 4 3 -2 6 -13 5 -11 0 -14 -3 -6 -6z"/>
<path d="M4233 5933 c9 -2 25 -2 35 0 9 3 1 5 -18 5 -19 0 -27 -2 -17 -5z"/>
<path d="M3951 5654 c0 -11 3 -14 6 -6 3 7 2 16 -1 19 -3 4 -6 -2 -5 -13z"/>
<path d="M3460 5581 c0 -17 47 -24 87 -13 l38 11 -51 -1 c-28 -1 -56 2 -62 6
-7 4 -12 3 -12 -3z"/>
<path d="M3600 5580 c0 -5 19 -10 42 -10 49 0 47 5 -4 14 -24 4 -38 3 -38 -4z"/>
<path d="M1415 3790 c3 -5 10 -10 16 -10 5 0 9 5 9 10 0 6 -7 10 -16 10 -8 0
-12 -4 -9 -10z"/>
<path d="M5220 5570 c0 -11 4 -20 9 -20 11 0 22 26 14 34 -12 12 -23 5 -23
-14z"/>
<path d="M5258 5463 c7 -3 16 -2 19 1 4 3 -2 6 -13 5 -11 0 -14 -3 -6 -6z"/>
<path d="M5347 5393 c13 -11 20 -23 16 -27 -3 -3 -1 -6 5 -6 7 0 12 9 12 20 0
11 -4 20 -9 20 -5 0 -18 3 -28 7 -14 5 -14 2 4 -14z"/>
<path d="M5394 4898 c-4 -7 -4 -10 1 -6 4 4 15 2 24 -5 14 -11 14 -10 2 6 -16
20 -18 21 -27 5z"/>
<path d="M5565 4900 c-3 -5 -2 -10 4 -10 5 0 13 5 16 10 3 6 2 10 -4 10 -5 0
-13 -4 -16 -10z"/>
<path d="M4516 4837 c3 -10 9 -15 12 -12 3 3 0 11 -7 18 -10 9 -11 8 -5 -6z"/>
<path d="M4428 4747 c-4 -19 -2 -25 6 -19 6 4 18 7 26 6 8 -1 20 -2 27 -3 7 0
11 -7 9 -13 -1 -7 -1 -10 1 -5 3 4 10 4 16 0 16 -10 41 -13 32 -5 -4 4 -12 7
-18 7 -7 1 -11 6 -10 11 2 10 -3 12 -44 16 -10 1 -23 8 -29 16 -9 13 -12 11
-16 -11z"/>
<path d="M4448 4713 c6 -2 18 -2 25 0 6 3 1 5 -13 5 -14 0 -19 -2 -12 -5z"/>
<path d="M4455 4660 c-3 -5 -1 -10 4 -10 6 0 11 5 11 10 0 6 -2 10 -4 10 -3 0
-8 -4 -11 -10z"/>
<path d="M5488 4263 c7 -3 16 -2 19 1 4 3 -2 6 -13 5 -11 0 -14 -3 -6 -6z"/>
<path d="M5570 4224 c0 -8 5 -12 10 -9 6 3 10 10 10 16 0 5 -4 9 -10 9 -5 0
-10 -7 -10 -16z"/>
<path d="M2610 1885 c-14 -17 -5 -48 13 -43 6 3 13 12 13 22 2 12 1 13 -3 1
-2 -8 -9 -15 -14 -15 -12 0 -11 7 1 31 13 23 7 25 -10 4z"/>
<path d="M2705 1759 c-4 -6 -5 -12 -2 -15 2 -3 7 2 10 11 7 17 1 20 -8 4z"/>
<path d="M2665 1650 c-3 -5 3 -10 14 -10 12 0 21 5 21 10 0 6 -6 10 -14 10 -8
0 -18 -4 -21 -10z"/>
<path d="M2763 1635 c0 -8 4 -12 9 -9 5 3 6 10 3 15 -9 13 -12 11 -12 -6z"/>
<path d="M2660 1626 c0 -9 30 -14 35 -6 4 6 -3 10 -14 10 -12 0 -21 -2 -21 -4z"/>
</g>
</svg>
